<?xml version="1.0" encoding="UTF-8" standalone="no"?>
<svg
   xmlns:dc="http://purl.org/dc/elements/1.1/"
   xmlns:cc="http://creativecommons.org/ns#"
   xmlns:rdf="http://www.w3.org/1999/02/22-rdf-syntax-ns#"
   xmlns:svg="http://www.w3.org/2000/svg"
   xmlns="http://www.w3.org/2000/svg"
   viewBox="0 0 521.30586 100.0017"
   id="svg968"
   height="100.0017"
   width="521.30585"
   version="1.1">
  <metadata
     id="metadata974">
    <rdf:RDF>
      <cc:Work
         rdf:about="">
        <dc:format>image/svg+xml</dc:format>
        <dc:type
           rdf:resource="http://purl.org/dc/dcmitype/StillImage" />
        <dc:title></dc:title>
      </cc:Work>
    </rdf:RDF>
  </metadata>
  <defs
     id="defs972" />
  <path
     d="m 7.01695,5.7441 h 104.1448 l 6.7335,6.7334 v 72.5723 l -6.7335,6.7334 H 7.01695 L 0.28345,85.0498 V 12.4775 Z"
     style="fill:#1b0f30;fill-opacity:1;fill-rule:evenodd;stroke:none;stroke-width:0.5669;stroke-linecap:butt;stroke-linejoin:miter;stroke-dasharray:none"
     id="path896" />
  <path
     d="m 367.89395,17.6691 3.5388,-11.7946 h 3.0676 l -4.4059,14.6868 h -4.4061 l -2.9373,-9.7945 -2.9475,9.7945 h -4.3758 l -4.4212,-14.6868 h 3.0677 l 3.539,11.7646 3.5388,-11.7646 h 3.2031 z m 12.5427,-0.045 h 7.3384 v 2.9372 h -7.3384 c -1.218,0 -2.2558,-0.4311 -3.1127,-1.2931 -0.8623,-0.8623 -1.2934,-1.8998 -1.2934,-3.113 v -5.8746 c 0,-1.2132 0.4311,-2.2507 1.2934,-3.1127 0.8569,-0.8623 1.8947,-1.2934 3.1127,-1.2934 h 4.4059 c 1.2133,0 2.2507,0.4311 3.113,1.2934 0.857,0.862 1.2881,1.8995 1.2881,3.1127 0,1.213 -0.4311,2.2508 -1.2881,3.1128 -0.8623,0.8623 -1.8997,1.2931 -3.113,1.2931 h -5.8745 v 1.4687 c 0,0.4011 0.1403,0.7469 0.4309,1.0377 0.2908,0.2858 0.6366,0.4312 1.0377,0.4312 z m -1.4686,-7.3435 v 1.4687 h 5.8745 c 0.4011,0 0.7419,-0.1454 1.0327,-0.4312 0.2908,-0.2905 0.4311,-0.6366 0.4311,-1.0375 0,-0.4011 -0.1403,-0.7469 -0.4311,-1.0326 -0.2908,-0.2909 -0.6316,-0.436 -1.0327,-0.436 h -4.4059 c -0.4011,0 -0.7469,0.1451 -1.0377,0.436 -0.2906,0.2857 -0.4309,0.6315 -0.4309,1.0326 z m 22.0663,5.8746 v -5.8746 c 0,-0.4011 -0.1403,-0.7469 -0.4311,-1.0326 -0.2909,-0.2909 -0.6316,-0.436 -1.0327,-0.436 h -2.9373 c -0.4011,0 -0.9924,0.1451 -1.7693,0.436 -0.7821,0.2857 -1.1679,0.6315 -1.1679,1.0326 v 5.8746 c 0,0.4011 0.3858,0.7469 1.1679,1.0377 0.7769,0.2858 1.3682,0.4312 1.7693,0.4312 h 2.9373 c 0.4011,0 0.7418,-0.1454 1.0327,-0.4312 0.2908,-0.2908 0.4311,-0.6366 0.4311,-1.0377 z m 2.9373,-5.8746 v 5.8746 c 0,1.2132 -0.4312,2.2507 -1.2881,3.113 -0.8623,0.862 -1.8998,1.2931 -3.113,1.2931 h -2.9373 c -1.218,0 -2.2555,-0.4311 -3.1178,-1.2931 -0.005,-0.0102 -0.0201,-0.0253 -0.04,-0.0451 l -2.717,1.6339 V 0.7367 L 393.69605,0 v 7.0075 c 0.822,-0.7569 1.7994,-1.133 2.9372,-1.133 h 2.9373 c 1.2132,0 2.2507,0.4311 3.113,1.2934 0.8569,0.862 1.2881,1.8995 1.2881,3.1127 z m 17.9348,10.2807 h -1.4687 c -1.9598,0 -3.9197,-0.1454 -5.8748,-0.441 V 17.183 c 1.9551,0.2957 3.915,0.4411 5.8748,0.4411 h 1.4687 c 0.4011,0 0.7469,-0.1454 1.0326,-0.4312 0.2906,-0.2908 0.436,-0.6366 0.436,-1.0377 0,-0.4009 -0.1454,-0.7467 -0.436,-1.0324 -0.2857,-0.2908 -0.6315,-0.4363 -1.0326,-0.4363 h -2.9373 c -1.218,0 -2.2558,-0.4308 -3.1127,-1.2931 -0.8623,-0.862 -1.2935,-1.8998 -1.2935,-3.1128 0,-1.2132 0.4312,-2.2507 1.2935,-3.1127 0.8569,-0.8623 1.8947,-1.2934 3.1127,-1.2934 h 1.4686 c 1.9548,0 3.6692,0.1505 5.1378,0.441 v 2.9376 c -1.4686,-0.2908 -3.183,-0.4411 -5.1378,-0.4411 h -1.4686 c -0.4011,0 -0.7469,0.1451 -1.0377,0.436 -0.2906,0.2857 -0.4309,0.6315 -0.4309,1.0326 0,0.4009 0.1403,0.747 0.4309,1.0375 0.2908,0.2858 0.6366,0.4312 1.0377,0.4312 h 2.9373 c 1.2129,0 2.2507,0.4311 3.1127,1.2931 0.8623,0.8623 1.2883,1.8998 1.2883,3.1128 0,1.2132 -0.426,2.2507 -1.2883,3.113 -0.862,0.862 -1.8998,1.2931 -3.1127,1.2931 z m 19.144,-10.2807 v 5.8746 c 0,1.2132 -0.4311,2.2507 -1.288,3.113 -0.8623,0.862 -1.8998,1.2931 -3.113,1.2931 h -4.4059 c -1.2181,0 -2.2558,-0.4311 -3.1127,-1.2931 -0.8623,-0.8623 -1.2935,-1.8998 -1.2935,-3.113 v -5.8746 c 0,-1.2132 0.4312,-2.2507 1.2935,-3.1127 0.8569,-0.8623 1.8946,-1.2934 3.1127,-1.2934 h 4.4059 c 1.2132,0 2.2507,0.4311 3.113,1.2934 0.8569,0.862 1.288,1.8995 1.288,3.1127 z m -2.9372,5.8746 v -5.8746 c 0,-0.4011 -0.1403,-0.7469 -0.4312,-1.0326 -0.2908,-0.2909 -0.6315,-0.436 -1.0326,-0.436 h -4.4059 c -0.4011,0 -0.7469,0.1451 -1.0378,0.436 -0.2905,0.2857 -0.4309,0.6315 -0.4309,1.0326 v 5.8746 c 0,0.4011 0.1404,0.7469 0.4309,1.0377 0.2909,0.2858 0.6367,0.4312 1.0378,0.4312 h 4.4059 c 0.4011,0 0.7418,-0.1454 1.0326,-0.4312 0.2909,-0.2908 0.4312,-0.6366 0.4312,-1.0377 z m 4.4521,0 V 0.7367 L 445.50285,0 v 16.1552 c 0,0.4011 0.1403,0.7469 0.4309,1.0377 0.2908,0.2858 0.6366,0.4312 1.0377,0.4312 h 1.4687 v 2.9372 h -1.4687 c -1.218,0 -2.2558,-0.4311 -3.1127,-1.2931 -0.8623,-0.8623 -1.2934,-1.8998 -1.2934,-3.113 z m 7.3998,0 V 5.8745 h 2.9376 v 10.2807 c 0,0.4011 0.1403,0.7469 0.4308,1.0377 0.2909,0.2858 0.6367,0.4312 1.0378,0.4312 h 1.4686 c 0.4011,0 0.9876,-0.1454 1.7694,-0.4312 0.777,-0.2908 1.1679,-0.6366 1.1679,-1.0377 V 5.8745 h 2.9324 V 20.857 l -2.7167,-1.6339 c -0.015,0.0198 -0.0301,0.0349 -0.0403,0.0451 -0.862,0.862 -1.8997,1.2931 -3.1127,1.2931 h -1.4686 c -1.2181,0 -2.2558,-0.4311 -3.1127,-1.2931 -0.8623,-0.8623 -1.2935,-1.8998 -1.2935,-3.113 z m 20.6328,1.4689 h 2.9325 v 2.9372 h -2.9325 c -1.218,0 -2.2555,-0.4311 -3.1178,-1.2931 -0.8572,-0.8623 -1.2881,-1.8998 -1.2881,-3.113 V 8.812 h -3.2332 l 6.1705,-6.1656 v 3.2281 h 4.4011 V 8.812 h -4.4011 v 7.3432 c 0,0.4011 0.1403,0.7469 0.4312,1.0377 0.2905,0.2858 0.6315,0.4312 1.0374,0.4312 z m 7.9563,-12.0402 v 14.9774 h -2.9375 V 7.3431 Z m 0,-5.5839 v 2.9372 h -2.9375 V 0 Z m 15.3145,10.2806 v 5.8746 c 0,1.2132 -0.4312,2.2507 -1.2881,3.113 -0.8623,0.862 -1.8998,1.2931 -3.113,1.2931 h -4.4059 c -1.218,0 -2.2558,-0.4311 -3.1127,-1.2931 -0.8623,-0.8623 -1.2935,-1.8998 -1.2935,-3.113 v -5.8746 c 0,-1.2132 0.4312,-2.2507 1.2935,-3.1127 0.8569,-0.8623 1.8947,-1.2934 3.1127,-1.2934 h 4.4059 c 1.2132,0 2.2507,0.4311 3.113,1.2934 0.8569,0.862 1.2881,1.8995 1.2881,3.1127 z m -2.9373,5.8746 v -5.8746 c 0,-0.4011 -0.1403,-0.7469 -0.4311,-1.0326 -0.2909,-0.2909 -0.6316,-0.436 -1.0327,-0.436 h -4.4059 c -0.4011,0 -0.7469,0.1451 -1.0377,0.436 -0.2906,0.2857 -0.4309,0.6315 -0.4309,1.0326 v 5.8746 c 0,0.4011 0.1403,0.7469 0.4309,1.0377 0.2908,0.2858 0.6366,0.4312 1.0377,0.4312 h 4.4059 c 0.4011,0 0.7418,-0.1454 1.0327,-0.4312 0.2908,-0.2908 0.4311,-0.6366 0.4311,-1.0377 z m 16.9333,-5.8746 v 10.2807 h -2.9372 V 10.2806 c 0,-0.4011 -0.1454,-0.7469 -0.4312,-1.0326 -0.2905,-0.2909 -0.6363,-0.436 -1.0375,-0.436 h -2.2005 c -0.4011,0 -0.9924,0.1451 -1.7694,0.436 -0.7821,0.2857 -1.1678,0.6315 -1.1678,1.0326 v 10.2807 h -2.9376 V 5.5839 l 2.717,1.6291 c 0.0199,-0.0201 0.0349,-0.0352 0.04,-0.0451 0.8623,-0.8623 1.8998,-1.2934 3.1178,-1.2934 h 2.2005 c 1.213,0 2.2508,0.4311 3.1128,1.2934 0.8623,0.862 1.2931,1.8995 1.2931,3.1127 z m 9.0341,10.2807 h -1.4687 c -1.9598,0 -3.9197,-0.1454 -5.8748,-0.441 V 17.183 c 1.9551,0.2957 3.915,0.4411 5.8748,0.4411 h 1.4687 c 0.4011,0 0.7469,-0.1454 1.0326,-0.4312 0.2906,-0.2908 0.436,-0.6366 0.436,-1.0377 0,-0.4009 -0.1454,-0.7467 -0.436,-1.0324 -0.2857,-0.2908 -0.6315,-0.4363 -1.0326,-0.4363 h -2.9373 c -1.2181,0 -2.2558,-0.4308 -3.1127,-1.2931 -0.8623,-0.862 -1.2935,-1.8998 -1.2935,-3.1128 0,-1.2132 0.4312,-2.2507 1.2935,-3.1127 0.8569,-0.8623 1.8946,-1.2934 3.1127,-1.2934 h 1.4686 c 1.9548,0 3.6692,0.1505 5.1378,0.441 v 2.9376 c -1.4686,-0.2908 -3.183,-0.4411 -5.1378,-0.4411 h -1.4686 c -0.4011,0 -0.7469,0.1451 -1.0378,0.436 -0.2905,0.2857 -0.4308,0.6315 -0.4308,1.0326 0,0.4009 0.1403,0.747 0.4308,1.0375 0.2909,0.2858 0.6367,0.4312 1.0378,0.4312 h 2.9373 c 1.2129,0 2.2507,0.4311 3.1127,1.2931 0.8623,0.8623 1.2883,1.8998 1.2883,3.1128 0,1.2132 -0.426,2.2507 -1.2883,3.113 -0.862,0.862 -1.8998,1.2931 -3.1127,1.2931 z"
     style="fill:#1b0f30;fill-opacity:1;fill-rule:evenodd"
     id="path898" />
  <path
     d="m 142.57425,25.5279 h -20.9382 v -9.3092 h 51.1852 v 9.3092 h -20.9378 v 55.8553 h -9.3092 z m 38.6892,46.546 h 23.2574 v 9.3093 h -23.2574 c -3.8602,0 -7.1487,-1.3663 -9.8651,-4.0986 -2.7326,-2.7323 -4.0987,-6.0208 -4.0987,-9.8652 V 48.8009 c 0,-3.8443 1.3661,-7.1328 4.0987,-9.8654 2.7164,-2.7323 6.0049,-4.0986 9.8651,-4.0986 h 13.964 c 3.8446,0 7.1328,1.3663 9.8654,4.0986 2.7165,2.7326 4.0828,6.0211 4.0828,9.8654 0,3.8444 -1.3663,7.1328 -4.0828,9.8652 -2.7326,2.7326 -6.0208,4.0986 -9.8654,4.0986 h -18.6185 v 4.6547 c 0,1.2708 0.4448,2.367 1.366,3.2882 0.9216,0.9057 2.0177,1.3663 3.2885,1.3663 z m -4.6545,-23.273 v 4.6545 h 18.6185 c 1.2711,0 2.3514,-0.4606 3.2726,-1.366 0.9216,-0.9215 1.3663,-2.0177 1.3663,-3.2885 0,-1.271 -0.4447,-2.3672 -1.3663,-3.2726 -0.9212,-0.9212 -2.0015,-1.3821 -3.2726,-1.3821 h -13.964 c -1.2708,0 -2.3669,0.4609 -3.2885,1.3821 -0.9212,0.9054 -1.366,2.0016 -1.366,3.2726 z m 72.8288,0 v 32.5823 h -9.3092 V 48.8009 c 0,-1.271 -0.4606,-2.3672 -1.3663,-3.2726 -0.9213,-0.9212 -2.0174,-1.3821 -3.2882,-1.3821 h -2.3196 c -1.2708,0 -3.1456,0.4609 -5.6081,1.3821 -2.478,0.9054 -3.7012,2.0016 -3.7012,3.2726 v 32.5823 h -9.3092 V 33.9156 l 8.6102,5.1631 c 0.0635,-0.0635 0.1111,-0.1112 0.127,-0.1432 2.7323,-2.7323 6.0208,-4.0986 9.8813,-4.0986 h 2.3196 c 3.8443,0 7.1328,1.3663 9.8651,4.0986 0.6197,0.6197 1.1597,1.2711 1.6362,1.9542 0.6514,-0.6831 1.2869,-1.3345 1.9063,-1.9542 2.7326,-2.7323 6.0211,-4.0986 9.8654,-4.0986 h 2.3193 c 3.8602,0 7.1487,1.3663 9.8651,4.0986 2.7326,2.7326 4.0987,6.0211 4.0987,9.8654 v 32.5823 h -9.309 V 48.8009 c 0,-1.271 -0.4451,-2.3672 -1.3663,-3.2726 -0.9216,-0.9212 -2.0016,-1.3821 -3.2885,-1.3821 h -2.3193 c -1.271,0 -3.1456,0.4609 -5.6078,1.3821 -2.4624,0.9054 -3.7015,2.0016 -3.7015,3.2726 z m 72.8289,0 v 18.6185 c 0,3.8444 -1.3663,7.1329 -4.0827,9.8652 -2.7326,2.7323 -6.0208,4.0986 -9.8655,4.0986 h -9.3092 c -3.606,0 -6.704,-1.1914 -9.309,-3.5904 v 22.2089 h -9.3095 V 33.9156 l 8.6105,5.1631 c 0.0635,-0.0635 0.1111,-0.1112 0.127,-0.1432 2.7323,-2.7323 6.0208,-4.0986 9.881,-4.0986 h 9.3092 c 3.8447,0 7.1329,1.3663 9.8655,4.0986 2.7164,2.7326 4.0827,6.0211 4.0827,9.8654 z m -9.3093,18.6185 V 48.8009 c 0,-1.271 -0.4447,-2.3672 -1.3663,-3.2726 -0.9212,-0.9212 -2.0015,-1.3821 -3.2726,-1.3821 h -9.3092 c -1.2708,0 -3.1453,0.4609 -5.6078,1.3821 -2.478,0.9054 -3.7012,2.0016 -3.7012,3.2726 v 18.6185 c 0,1.2708 1.2232,2.367 3.7012,3.2882 2.4625,0.9057 4.337,1.3663 5.6078,1.3663 h 9.3092 c 1.2711,0 2.3514,-0.4606 3.2726,-1.3663 0.9216,-0.9212 1.3663,-2.0174 1.3663,-3.2882 z m 14.6696,0 V 18.5538 l 9.3096,-2.3351 v 51.2007 c 0,1.2708 0.4447,2.367 1.366,3.2882 0.9215,0.9057 2.0177,1.3663 3.2884,1.3663 h 4.6545 v 9.3093 h -4.6545 c -3.8602,0 -7.1486,-1.3663 -9.8651,-4.0986 -2.7329,-2.7323 -4.0989,-6.0208 -4.0989,-9.8652 z m 24.0109,0 V 48.8009 c 0,-3.8443 1.366,-7.1328 4.0986,-9.8654 2.7164,-2.7323 6.0049,-4.0986 9.8651,-4.0986 h 9.3093 c 3.5901,0 6.6883,1.1917 9.2937,3.5904 v -3.5904 h 9.3092 v 47.4837 l -8.6102,-5.1789 c -0.0479,0.0635 -0.0955,0.1111 -0.1273,0.1429 -2.7323,2.7323 -6.0211,4.0986 -9.8654,4.0986 h -9.3093 c -3.8602,0 -7.1487,-1.3663 -9.8651,-4.0986 -2.7326,-2.7323 -4.0986,-6.0208 -4.0986,-9.8652 z m 9.3092,-18.6185 v 18.6185 c 0,1.2708 0.4448,2.367 1.3661,3.2882 0.9215,0.9057 2.0177,1.3663 3.2884,1.3663 h 9.3093 c 1.2708,0 3.1294,-0.4606 5.6078,-1.3663 2.4624,-0.9212 3.6859,-2.0174 3.6859,-3.2882 V 48.8009 c 0,-1.271 -1.2235,-2.3672 -3.6859,-3.2726 -2.4784,-0.9212 -4.337,-1.3821 -5.6078,-1.3821 h -9.3093 c -1.2707,0 -2.3669,0.4609 -3.2884,1.3821 -0.9213,0.9054 -1.3661,2.0016 -1.3661,3.2726 z m 61.2477,23.273 h 9.2936 v 9.3093 h -9.2936 c -3.8603,0 -7.1487,-1.3663 -9.881,-4.0986 -2.7168,-2.7323 -4.0828,-6.0208 -4.0828,-9.8652 V 44.1462 h -10.2467 l 19.556,-19.5398 v 10.2305 h 13.9481 v 9.3093 h -13.9481 v 23.2732 c 0,1.2708 0.4447,2.367 1.366,3.2882 0.9215,0.9057 2.0018,1.3663 3.2885,1.3663 z m 28.6177,0 h 23.2571 v 9.3093 h -23.2571 c -3.8602,0 -7.1487,-1.3663 -9.8651,-4.0986 -2.7326,-2.7323 -4.0987,-6.0208 -4.0987,-9.8652 V 48.8009 c 0,-3.8443 1.3661,-7.1328 4.0987,-9.8654 2.7164,-2.7323 6.0049,-4.0986 9.8651,-4.0986 h 13.9637 c 3.8447,0 7.1329,1.3663 9.8655,4.0986 2.7164,2.7326 4.0827,6.0211 4.0827,9.8654 0,3.8444 -1.3663,7.1328 -4.0827,9.8652 -2.7326,2.7326 -6.0208,4.0986 -9.8655,4.0986 h -18.6182 v 4.6547 c 0,1.2708 0.4448,2.367 1.366,3.2882 0.9216,0.9057 2.0177,1.3663 3.2885,1.3663 z m -4.6545,-23.273 v 4.6545 h 18.6182 c 1.2711,0 2.3514,-0.4606 3.2726,-1.366 0.9216,-0.9215 1.3663,-2.0177 1.3663,-3.2885 0,-1.271 -0.4447,-2.3672 -1.3663,-3.2726 -0.9212,-0.9212 -2.0015,-1.3821 -3.2726,-1.3821 h -13.9637 c -1.2708,0 -2.3669,0.4609 -3.2885,1.3821 -0.9212,0.9054 -1.366,2.0016 -1.366,3.2726 z m 61.2,32.5823 h -4.6548 c -6.2112,0 -12.4228,-0.4606 -18.6182,-1.3981 v -9.3092 c 6.1954,0.9374 12.407,1.398 18.6182,1.398 h 4.6548 c 1.2708,0 2.3669,-0.4606 3.2726,-1.3663 0.9213,-0.9212 1.3819,-2.0174 1.3819,-3.2882 0,-1.271 -0.4606,-2.3672 -1.3819,-3.2726 -0.9057,-0.9215 -2.0018,-1.3821 -3.2726,-1.3821 h -9.3093 c -3.8602,0 -7.1486,-1.366 -9.8651,-4.0986 -2.7326,-2.7324 -4.0986,-6.0208 -4.0986,-9.8652 0,-3.8443 1.366,-7.1328 4.0986,-9.8654 2.7165,-2.7323 6.0049,-4.0986 9.8651,-4.0986 h 4.6545 c 6.1957,0 11.6289,0.4768 16.2834,1.398 v 9.3093 c -4.6545,-0.9213 -10.0877,-1.398 -16.2834,-1.398 h -4.6545 c -1.2707,0 -2.3669,0.4609 -3.2884,1.3821 -0.9213,0.9054 -1.366,2.0016 -1.366,3.2726 0,1.2708 0.4447,2.367 1.366,3.2885 0.9215,0.9054 2.0177,1.366 3.2884,1.366 h 9.3093 c 3.8444,0 7.1328,1.3663 9.8651,4.0986 2.7326,2.7326 4.0828,6.0208 4.0828,9.8654 0,3.8444 -1.3502,7.1329 -4.0828,9.8652 -2.7323,2.7323 -6.0207,4.0986 -9.8651,4.0986 z"
     style="fill:#ffffff;fill-opacity:1;fill-rule:evenodd"
     id="path900" />
  <g
     id="g1800">
    <path
       d="m 10.78615,16.2187 h 9.2772 v 65.0902 h -9.2772 z"
       style="fill:#4c2c87;fill-opacity:1;fill-rule:evenodd"
       id="path902" />
    <path
       d="m 23.10265,51.7217 v -9.2772 h 37.26 v 9.2772 z"
       style="fill:#4c2c87;fill-opacity:1;fill-rule:evenodd"
       id="path904" />
    <path
       d="m 53.70265,16.2187 h 9.2773 v 65.0902 h -9.2773 z"
       style="fill:#4c2c87;fill-opacity:1;fill-rule:evenodd"
       id="path906" />
  </g>
  <g
     id="g1779">
    <g
       id="g1774">
      <path
         id="path909"
         style="fill:#ffffff;fill-rule:evenodd"
         d="m 66.94505,25.4959 v -9.2775 h 40.4759 v 9.2775 z" />
    </g>
    <path
       id="path911"
       style="fill:#ffffff;fill-rule:evenodd"
       d="m 66.945312,42.445312 v 9.277344 H 98.144531 V 72.03125 H 66.945312 v 9.277344 h 31.199219 9.277349 V 72.03125 42.445312 Z" />
  </g>
  <path
     id="path966"
     style="fill:#ffffff;fill-rule:evenodd;stroke:#ffffff;stroke-width:0.5669;stroke-linecap:butt;stroke-linejoin:miter;stroke-dasharray:none"
     d="m 1436.6853,-390.39859 v 56.4001 h 308.4001 v -56.4001 z" />
</svg>
